<svg width="29" height="29" viewBox="0 0 29 29" fill="none" xmlns="http://www.w3.org/2000/svg">
<path fill-rule="evenodd" clip-rule="evenodd" d="M11 2.83333C15.5103 2.83333 19.1667 6.48967 19.1667 11C19.1667 15.5103 15.5103 19.1667 11 19.1667C10.0197 19.1667 9.08227 18.9945 8.21454 18.6797C7.83206 18.5409 7.40675 18.5099 6.99189 18.6118C5.87762 18.8855 4.74009 19.0591 3.59291 19.13C4.0243 17.9934 4.17334 16.7647 4.02169 15.5509C3.98795 15.2809 3.89965 15.0442 3.79474 14.8482C3.18154 13.7028 2.83333 12.3938 2.83333 11C2.83333 6.48967 6.48968 2.83333 11 2.83333ZM21.5 11C21.5 5.20101 16.799 0.5 11 0.5C5.20101 0.5 0.5 5.20101 0.5 11C0.5 12.7695 0.938642 14.4399 1.71405 15.9051C1.83508 16.9853 1.61081 18.0795 1.06855 19.0285L1.0207 19.1122C0.412733 20.1762 1.18096 21.5 2.40637 21.5C4.11887 21.5 5.82155 21.296 7.47891 20.8947C8.58109 21.287 9.76691 21.5 11 21.5C16.799 21.5 21.5 16.799 21.5 11ZM24.2477 10.1345C23.7552 10.5499 23.6928 11.286 24.1082 11.7785C25.3933 13.3018 26.1667 15.2674 26.1667 17.4167C26.1667 18.913 25.792 20.3184 25.1324 21.5476C25.0266 21.7446 24.9388 21.9811 24.9049 22.2496C24.7381 23.5687 24.9088 24.9049 25.3957 26.1343C24.1283 26.063 22.8715 25.8742 21.6414 25.5709C21.2262 25.4686 20.7997 25.4994 20.4159 25.6395C19.482 25.9802 18.4724 26.1667 17.4167 26.1667C15.2674 26.1667 13.3018 25.3933 11.7785 24.1082C11.286 23.6928 10.5499 23.7552 10.1345 24.2477C9.71902 24.7403 9.78148 25.4763 10.274 25.8918C12.2025 27.5185 14.6965 28.5 17.4167 28.5C18.726 28.5 19.9847 28.2725 21.1538 27.8538C22.9158 28.2822 24.7263 28.5 26.5474 28.5C27.7934 28.5 28.5745 27.1539 27.9563 26.0721L27.9055 25.9831C27.3194 24.9574 27.0783 23.774 27.2121 22.6065C28.0345 21.057 28.5 19.2895 28.5 17.4167C28.5 14.6965 27.5185 12.2025 25.8918 10.274C25.4763 9.78148 24.7403 9.71902 24.2477 10.1345ZM6.33333 12.1667C6.97766 12.1667 7.5 11.6443 7.5 11C7.5 10.3557 6.97766 9.83333 6.33333 9.83333C5.689 9.83333 5.16667 10.3557 5.16667 11C5.16667 11.6443 5.689 12.1667 6.33333 12.1667ZM12.1667 11C12.1667 11.6443 11.6443 12.1667 11 12.1667C10.3557 12.1667 9.83333 11.6443 9.83333 11C9.83333 10.3557 10.3557 9.83333 11 9.83333C11.6443 9.83333 12.1667 10.3557 12.1667 11ZM15.6667 12.1667C16.311 12.1667 16.8333 11.6443 16.8333 11C16.8333 10.3557 16.311 9.83333 15.6667 9.83333C15.0223 9.83333 14.5 10.3557 14.5 11C14.5 11.6443 15.0223 12.1667 15.6667 12.1667Z" fill="#3A3A3A"/>
</svg>
