<svg width="28" height="27" viewBox="0 0 28 27" fill="none" xmlns="http://www.w3.org/2000/svg">
<path d="M10.8177 26.8073L7.20833 20.0989L0.5 16.4896L3.08854 13.9375L8.375 14.8489L12.0937 11.1302L0.536458 6.20831L3.59896 3.0729L17.6354 5.55206L22.1562 1.03123C22.7153 0.472202 23.408 0.192688 24.2344 0.192688C25.0608 0.192688 25.7535 0.472202 26.3125 1.03123C26.8715 1.59026 27.151 2.27689 27.151 3.09113C27.151 3.90536 26.8715 4.59199 26.3125 5.15102L21.7552 9.70831L24.2344 23.7083L21.1354 26.8073L16.1771 15.25L12.4583 18.9687L13.4062 24.2187L10.8177 26.8073Z" fill="#3A3A3A"/>
</svg>
