<svg width="46" height="46" viewBox="0 0 46 46" fill="none" xmlns="http://www.w3.org/2000/svg">
<path fill-rule="evenodd" clip-rule="evenodd" d="M23 2.74272e-07C35.7025 1.22796e-07 46 10.2975 46 23C46 35.7025 35.7025 46 23 46C10.2975 46 4.25749e-07 35.7025 2.74272e-07 23C1.22796e-07 10.2975 10.2975 4.25749e-07 23 2.74272e-07ZM23.1768 15.0374C23.0791 14.9398 22.9208 14.9398 22.8232 15.0374L16.6303 21.2303C16.3374 21.5232 15.8625 21.5232 15.5696 21.2303C15.2768 20.9374 15.2768 20.4626 15.5696 20.1697L21.7625 13.9768C22.446 13.2934 23.554 13.2934 24.2374 13.9768L30.4303 20.1697C30.7232 20.4626 30.7232 20.9374 30.4303 21.2303C30.1374 21.5232 29.6625 21.5232 29.3696 21.2303L23.1768 15.0374ZM23.75 32.2C23.75 32.6142 23.4142 32.95 23 32.95C22.5858 32.95 22.25 32.6142 22.25 32.2L22.25 16.1C22.25 15.6858 22.5858 15.35 23 15.35C23.4142 15.35 23.75 15.6858 23.75 16.1L23.75 32.2Z" fill="#3A3A3A"/>
</svg>
