<svg width="374" height="454" viewBox="0 0 374 454" fill="none" xmlns="http://www.w3.org/2000/svg">
<path d="M252.515 335.28L231.136 343.64L232.297 352.361L252.854 337.247L252.515 335.28Z" fill="#6C939C"/>
<path d="M207.519 195.902L226.798 505.191L240.731 504.385L210.642 194.656L207.519 195.902Z" fill="#6C939C"/>
<path d="M209.423 195.176L238.057 504.991L251.964 503.686L212.508 193.814L209.423 195.176Z" fill="#6C939C"/>
<path d="M256.788 326.102C254.325 328.715 252.652 334.553 252.652 334.553L256.315 332.705C257.939 332.134 256.315 332.705 257.964 331.987C259.614 331.268 263.408 330.249 265.634 329.729C267.795 329.224 268.921 329.256 271.064 329.353C272.748 329.43 275.201 330.126 275.201 330.126C275.201 330.126 272.939 330.024 269.974 330.431C267.009 330.837 264.865 331.709 262.022 332.709C259.179 333.708 255.152 336.219 255.152 336.219C255.152 336.219 258.505 338.061 260.998 338.617C264.152 339.32 266.217 339.542 269.583 338.78C271.254 338.401 271.868 338.295 273.492 337.723C275.659 336.962 277.181 336.019 279.099 334.798C281.335 333.376 281.921 332.027 284.228 330.451C287.619 328.134 293.713 328.8 291.254 327.114C290.388 326.52 288.663 326.348 288.663 326.348C285.713 325.668 284.507 324.507 281.835 323.341C278.83 322.029 277.534 320.542 274.123 320.009C270.227 319.4 267.506 319.535 263.65 321.146C260.549 322.44 258.99 323.765 256.788 326.102Z" fill="#C6D4BA"/>
<path d="M253.069 330.119C252.611 332.184 250.378 334.861 250.378 334.861L249.85 333.407C249.606 332.407 249.382 331.486 249.287 330.378C249.192 329.269 248.914 328.25 248.456 326.962C248.012 325.711 247.741 324.975 247.018 323.923C246.449 323.095 245.345 322.074 245.345 322.074C245.345 322.074 246.151 323.232 246.896 324.858C247.641 326.485 247.89 327.509 248.316 329.26C248.742 331.011 248.8 334.12 248.8 334.12C248.8 334.12 246.868 333.003 245.817 331.917C244.488 330.543 243.73 329.569 243.026 327.628C242.677 326.665 242.534 326.321 242.29 325.321C241.966 323.987 241.931 322.922 241.902 321.569C241.868 319.993 242.321 319.273 242.337 317.613C242.361 315.172 240.119 312.3 241.695 313.014C242.249 313.266 242.877 314.084 242.877 314.084C244.131 315.362 245.061 315.607 246.458 316.592C248.028 317.699 249.142 317.888 250.472 319.445C251.992 321.223 252.788 322.641 253.245 325.096C253.613 327.069 253.479 328.273 253.069 330.119Z" fill="#C6D4BA"/>
<path d="M169.167 154.515C180.842 163.126 196.953 181.391 196.953 181.391L204.207 189.874L203.126 180.837C203.126 180.837 202.071 166.585 199.294 161.648C196.59 156.839 196.5 153.568 193.206 149.266C189.912 144.964 187.639 142.246 184.357 138.678C179.819 133.746 171.372 124.807 171.372 124.807C171.372 124.807 180.835 131.81 186.32 135.832C192.397 140.289 195.935 144.408 199.305 149.703C202.675 154.998 204.596 161.032 205.897 167.098L207.839 188.143L208.794 175.269C208.794 175.269 210.572 151.055 204.617 137.141C198.863 123.699 192.345 118.147 182.205 108.659C175.559 102.44 169.897 99.1894 163.919 95.4045C157.94 91.6195 152.235 87.6 142.871 83.9435C132.288 79.8107 123.6 75.8679 114.045 82.8767C107.182 87.9117 103.257 93.8024 102.918 102.986C102.604 111.491 111.106 122.487 111.106 122.487L139.27 132.466L169.167 154.515Z" fill="#C6D4BA"/>
<path d="M231.998 142.37C224.718 153.448 215.034 177.184 215.034 177.184L210.689 188.214L210.895 176.28C210.895 176.28 210.788 157.442 212.356 150.983C213.883 144.691 213.757 140.363 215.705 134.759C217.653 129.154 219.011 125.618 220.992 120.985C223.732 114.581 228.846 102.98 228.846 102.98C228.846 102.98 222.946 111.99 219.525 117.163C215.734 122.896 213.613 128.251 211.671 135.168C209.729 142.085 208.794 150.021 208.272 158.016L208.174 185.822L206.807 168.754C206.807 168.754 204.251 136.648 207.424 118.392C210.49 100.754 214.512 93.585 220.721 81.303C224.79 73.253 228.373 69.1061 232.137 64.2602C235.9 59.4143 239.468 54.2503 245.491 49.6678C252.299 44.4884 257.856 39.5083 264.611 49.0505C269.464 55.9055 272.41 63.8123 273.157 75.98C273.848 87.2484 268.815 101.57 268.815 101.57L250.64 114.005L231.998 142.37Z" fill="#C6D4BA"/>
<path d="M243.911 176.555C234.178 178.981 218.063 187.169 218.063 187.169L210.698 191.053L215.066 184.578C215.066 184.578 221.615 174.139 225.145 171.37C228.584 168.674 230.007 166.224 233.541 164.119C237.075 162.015 239.408 160.752 242.627 159.2C247.077 157.054 255.258 153.245 255.258 153.245C255.258 153.245 247.359 155.228 242.797 156.35C237.742 157.594 234.158 159.474 230.166 162.305C226.175 165.136 222.631 169.038 219.397 173.182L209.526 188.462L214.443 178.361C214.443 178.361 223.702 159.368 232.673 150.908C241.34 142.735 247.086 140.817 256.384 137.186C262.478 134.805 266.809 134.331 271.53 133.563C276.25 132.794 280.927 131.752 287.365 132.272C294.641 132.859 300.846 132.924 302.896 141.6C304.369 147.834 303.944 153.682 300.257 160.768C296.842 167.33 287.767 172.68 287.767 172.68L268.831 170.344L243.911 176.555Z" fill="#C6D4BA"/>
<path d="M236.323 196.825C229.639 194.345 217.169 192.778 217.169 192.778L211.422 192.149L216.231 189.981C216.231 189.981 223.686 186.284 226.745 186.034C229.725 185.79 231.406 184.876 234.244 185.031C237.082 185.187 238.914 185.366 241.376 185.73C244.78 186.233 250.994 187.24 250.994 187.24C250.994 187.24 245.564 185.235 242.436 184.063C238.969 182.765 236.176 182.452 232.818 182.553C229.459 182.655 226.012 183.59 222.67 184.8L211.585 190.094L217.943 185.94C217.943 185.94 229.904 178.135 238.156 176.63C246.128 175.176 250.238 176.345 257.066 177.914C261.541 178.943 264.312 180.415 267.417 181.867C270.523 183.319 273.694 184.586 277.402 187.522C281.594 190.839 285.315 193.403 283.639 199.523C282.434 203.919 280.214 207.309 275.611 210.126C271.348 212.735 264.078 212.303 264.078 212.303L253.44 203.178L236.323 196.825Z" fill="#C6D4BA"/>
<path d="M201.443 215.796C201.494 210.182 203.337 201.177 203.337 201.177L204.239 197.071L201.945 199.215C201.945 199.215 198.197 202.378 197.382 204.283C196.588 206.138 195.697 206.813 195.163 208.766C194.628 210.719 194.329 212.018 193.996 213.822C193.536 216.316 192.747 220.912 192.747 220.912C192.747 220.912 192.794 216.357 192.811 213.724C192.831 210.807 193.265 208.808 194.061 206.634C194.856 204.46 196.147 202.626 197.571 200.994L203.029 196.194L199.261 198.411C199.261 198.411 192.176 202.588 189.505 207.328C186.924 211.908 186.689 215.189 186.087 220.461C185.692 223.916 185.925 226.457 186.072 229.208C186.22 231.96 186.248 234.666 187.11 238.528C188.085 242.893 188.732 246.585 192.596 248.408C195.372 249.718 197.796 249.874 200.416 248.177C202.842 246.606 204.191 241.587 204.191 241.587L201.314 230.171L201.443 215.796Z" fill="#C6D4BA"/>
<path d="M157.647 192.546C171.698 191.569 193.373 194.111 193.373 194.111L203.224 195.413L198.974 190.481C198.974 190.481 192.882 182.357 188.506 180.828C184.244 179.339 182.989 177.393 178.354 176.527C173.719 175.662 170.61 175.216 166.25 174.792C160.221 174.205 149.085 173.262 149.085 173.262C149.085 173.262 160.483 172.483 167.075 172.01C174.381 171.486 179.179 172.11 184.24 173.541C189.301 174.971 193.266 177.625 196.66 180.629L206.017 192.421L202.307 184.065C202.307 184.065 195.31 168.357 184.734 163.051C174.517 157.925 166.406 158.018 153.483 157.641C145.014 157.394 138.53 158.432 131.559 159.313C124.587 160.194 117.788 160.786 107.682 163.551C96.2595 166.676 86.6856 168.905 80.2179 178.273C75.5716 185.002 73.9923 190.686 76.9612 196.464C79.7107 201.816 91.6336 203.985 91.6336 203.985L121.667 195.048L157.647 192.546Z" fill="#C6D4BA"/>
<path d="M173.888 212.92C181.565 206.941 196.301 199.937 196.301 199.937L203.104 196.834L197.046 195.78C197.046 195.78 187.61 193.689 183.909 194.547C180.305 195.382 178.166 194.803 174.785 196.124C171.404 197.446 169.233 198.406 166.331 199.863C162.318 201.877 155.006 205.674 155.006 205.674C155.006 205.674 161.244 200.832 164.835 198.019C168.815 194.902 172.121 193.385 176.16 192.208C180.199 191.031 184.459 190.949 188.628 191.279L202.631 194.114L194.449 190.974C194.449 190.974 179.055 185.08 168.96 186.271C159.208 187.421 154.439 190.614 146.467 195.414C141.242 198.56 138.119 201.64 134.593 204.823C131.067 208.007 127.437 210.965 123.388 216.394C118.812 222.531 114.698 227.461 117.536 235.098C119.574 240.584 122.694 244.309 128.592 246.324C134.055 248.19 142.712 244.759 142.712 244.759L154.229 228.23L173.888 212.92Z" fill="#C6D4BA"/>
<path d="M77.3837 424.923L89.8757 428.912L89.4385 433.806L77.2408 426.029L77.3837 424.923Z" fill="#6C939C"/>
<path d="M99.5436 345.883L96.6169 518.761L88.5983 518.747L97.7185 345.287L99.5436 345.883Z" fill="#6C939C"/>
<path d="M98.4317 345.538L90.1492 519.002L82.1318 518.709L96.6252 344.876L98.4317 345.538Z" fill="#6C939C"/>
<path d="M74.6895 419.945C76.1718 421.323 77.2856 424.523 77.2856 424.523L75.1347 423.608C74.1871 423.34 75.1347 423.608 74.1689 423.259C73.203 422.91 70.9984 422.461 69.7068 422.241C68.4536 422.027 67.8075 422.08 66.5804 422.201C65.6155 422.297 64.2261 422.761 64.2261 422.761C64.2261 422.761 65.5216 422.634 67.2343 422.767C68.9469 422.901 70.2003 423.32 71.8587 423.788C73.5171 424.256 75.8949 425.529 75.8949 425.529C75.8949 425.529 74.0184 426.659 72.6018 427.047C70.8099 427.537 69.6308 427.725 67.6785 427.406C66.709 427.247 66.3543 427.207 65.4066 426.939C64.1431 426.583 63.2447 426.105 62.1113 425.485C60.7906 424.763 60.4186 424.03 59.0531 423.224C57.0454 422.039 53.5647 422.601 54.9318 421.585C55.4132 421.227 56.3994 421.077 56.3994 421.077C58.0748 420.606 58.7363 419.922 60.2393 419.189C61.9295 418.364 62.6347 417.495 64.5785 417.092C66.7988 416.631 68.3643 416.622 70.6202 417.398C72.4338 418.022 73.3637 418.712 74.6895 419.945Z" fill="#C6D4BA"/>
<path d="M76.9297 422.066C77.2467 423.202 78.5991 424.623 78.5991 424.623L78.8642 423.797C78.9776 423.232 79.0819 422.712 79.1072 422.092C79.1325 421.471 79.2657 420.895 79.4944 420.163C79.7163 419.453 79.8525 419.034 80.2401 418.425C80.5448 417.947 81.1518 417.343 81.1518 417.343C81.1518 417.343 80.7196 418.014 80.3346 418.943C79.9497 419.872 79.8336 420.45 79.6352 421.439C79.4367 422.427 79.4856 424.161 79.4856 424.161C79.4856 424.161 80.5648 423.478 81.1396 422.841C81.8667 422.034 82.2762 421.468 82.6288 420.365C82.8039 419.817 82.8772 419.621 82.9906 419.056C83.1418 418.303 83.1338 417.709 83.1149 416.955C83.0929 416.076 82.814 415.689 82.7608 414.765C82.6827 413.406 83.894 411.736 83.0085 412.183C82.6968 412.34 82.3583 412.816 82.3583 412.816C81.6721 413.567 81.1444 413.732 80.3688 414.325C79.4965 414.99 78.8623 415.13 78.1395 416.039C77.3139 417.077 76.8944 417.892 76.6965 419.273C76.5375 420.384 76.6461 421.05 76.9297 422.066Z" fill="#C6D4BA"/>
<path d="M120.469 321.633C113.994 326.794 105.227 337.47 105.227 337.47L101.286 342.422L101.669 337.355C101.669 337.355 101.899 329.384 103.363 326.547C104.789 323.784 104.754 321.959 106.532 319.46C108.31 316.961 109.543 315.375 111.333 313.286C113.808 310.397 118.422 305.154 118.422 305.154C118.422 305.154 113.174 309.35 110.131 311.762C106.76 314.434 104.838 316.839 103.043 319.894C101.248 322.948 100.304 326.369 99.7166 329.789L99.1558 341.571L98.2686 334.431C98.2686 334.431 96.6108 320.999 99.6631 313.063C102.612 305.395 106.208 302.1 111.778 296.498C115.429 292.826 118.594 290.839 121.926 288.544C125.258 286.249 128.427 283.832 133.706 281.503C139.672 278.87 144.555 276.402 150.224 280.008C154.296 282.598 156.705 285.757 157.141 290.862C157.545 295.589 152.954 301.979 152.954 301.979L137.05 308.417L120.469 321.633Z" fill="#C6D4BA"/>
<path d="M84.0836 316.831C88.554 322.773 94.7375 335.692 94.7375 335.692L97.522 341.7L97.0894 335.06C97.0894 335.06 96.6549 324.563 95.5851 321.014C94.5433 317.558 94.5016 315.143 93.2359 312.082C91.9703 309.021 91.0977 307.094 89.8383 304.575C88.0972 301.093 84.8566 294.792 84.8566 294.792C84.8566 294.792 88.4803 299.626 90.5802 302.401C92.9072 305.475 94.2654 308.392 95.562 312.184C96.8587 315.976 97.6047 320.367 98.1147 324.804L98.9028 340.289L99.2377 330.739C99.2377 330.739 99.8605 312.776 97.5585 302.707C95.3345 292.978 92.8368 289.111 88.9498 282.463C86.4022 278.107 84.2362 275.909 81.9485 273.327C79.6608 270.745 77.4767 267.981 73.8988 265.616C69.8546 262.944 66.5336 260.344 62.9072 265.87C60.3021 269.839 58.8192 274.336 58.7109 281.136C58.6106 287.435 61.8766 295.255 61.8766 295.255L72.6362 301.613L84.0836 316.831Z" fill="#C6D4BA"/>
<path d="M78.1454 336.244C83.7956 337.291 93.2616 341.348 93.2616 341.348L97.5914 343.282L94.9135 339.812C94.9135 339.812 90.8797 334.201 88.7804 332.769C86.7358 331.375 85.8542 330.055 83.7703 328.993C81.6864 327.931 80.3139 327.3 78.4256 326.537C75.8149 325.481 71.0186 323.614 71.0186 323.614C71.0186 323.614 75.6045 324.472 78.2528 324.955C81.1874 325.49 83.2942 326.425 85.6597 327.877C88.0253 329.33 90.1623 331.392 92.1275 333.599L98.1959 341.802L95.1077 336.329C95.1077 336.329 89.2931 326.039 83.9211 321.607C78.731 317.326 75.3819 316.437 69.9492 314.704C66.3885 313.569 63.8903 313.44 61.1603 313.16C58.4303 312.879 55.7185 312.444 52.0368 312.935C47.8753 313.489 44.3153 313.719 43.367 318.616C42.6858 322.134 43.0837 325.379 45.3866 329.21C47.5194 332.759 52.8694 335.455 52.8694 335.455L63.6772 333.563L78.1454 336.244Z" fill="#C6D4BA"/>
<path d="M83.0341 347.297C86.8058 345.707 93.9225 344.445 93.9225 344.445L97.2044 343.915L94.387 342.857C94.387 342.857 90.0104 341.031 88.2478 340.987C86.5313 340.944 85.5422 340.488 83.9171 340.663C82.2921 340.838 81.2455 340.996 79.8417 341.275C77.9008 341.661 74.3606 342.416 74.3606 342.416C74.3606 342.416 77.4247 341.13 79.1897 340.38C81.1455 339.548 82.7405 339.287 84.6708 339.238C86.6011 339.19 88.6047 339.603 90.5547 340.172L97.0568 342.775L93.2983 340.66C93.2983 340.66 86.2267 336.686 81.4506 336.106C76.8364 335.545 74.5078 336.324 70.6299 337.412C68.0883 338.124 66.5363 339.031 64.792 339.937C63.0476 340.843 61.2609 341.648 59.2092 343.398C56.8903 345.377 54.8219 346.921 55.9455 350.278C56.7526 352.689 58.1163 354.508 60.8326 355.933C63.3482 357.253 67.5101 356.786 67.5101 356.786L73.3759 351.371L83.0341 347.297Z" fill="#C6D4BA"/>
<path d="M103.555 356.774C103.378 353.649 102.083 348.691 102.083 348.691L101.457 346.432L102.831 347.555C102.831 347.555 105.065 349.199 105.583 350.235C106.088 351.243 106.617 351.592 106.975 352.663C107.333 353.734 107.539 354.448 107.778 355.442C108.107 356.818 108.681 359.353 108.681 359.353C108.681 359.353 108.534 356.817 108.455 355.351C108.367 353.727 108.065 352.627 107.551 351.441C107.038 350.255 106.248 349.273 105.388 348.409L102.129 345.906L104.35 347.023C104.35 347.023 108.527 349.128 110.185 351.685C111.787 354.156 112.008 355.976 112.492 358.893C112.81 360.806 112.743 362.228 112.731 363.765C112.719 365.303 112.774 366.811 112.381 368.989C111.936 371.451 111.661 373.527 109.491 374.664C107.933 375.48 106.545 375.642 104.997 374.779C103.563 373.98 102.656 371.226 102.656 371.226L104.007 364.778L103.555 356.774Z" fill="#C6D4BA"/>
<path d="M128.083 342.456C119.991 342.351 107.617 344.444 107.617 344.444L101.996 345.477L104.306 342.597C104.306 342.597 107.589 337.881 110.061 336.893C112.468 335.931 113.137 334.807 115.775 334.181C118.413 333.554 120.185 333.209 122.677 332.836C126.122 332.321 132.49 331.447 132.49 331.447C132.49 331.447 125.927 331.37 122.13 331.312C117.923 331.249 115.185 331.746 112.318 332.701C109.45 333.656 107.244 335.258 105.375 337.037L100.314 343.898L102.224 339.127C102.224 339.127 105.827 330.159 111.758 326.874C117.488 323.699 122.146 323.498 129.554 322.884C134.409 322.482 138.158 322.858 142.183 323.131C146.208 323.404 150.126 323.521 156 324.745C162.639 326.129 168.193 327.072 172.152 332.087C174.996 335.69 176.052 338.807 174.5 342.119C173.063 345.185 166.276 346.766 166.276 346.766L148.802 342.726L128.083 342.456Z" fill="#C6D4BA"/>
<path d="M119.296 354.312C114.732 351.222 106.089 347.781 106.089 347.781L102.103 346.265L105.552 345.488C105.552 345.488 110.913 344.029 113.06 344.391C115.151 344.744 116.364 344.354 118.339 344.985C120.315 345.615 121.586 346.082 123.291 346.803C125.647 347.8 129.944 349.686 129.944 349.686C129.944 349.686 126.236 347.184 124.1 345.729C121.734 344.118 119.796 343.376 117.447 342.846C115.097 342.317 112.65 342.404 110.266 342.718L102.303 344.734L106.917 342.73C106.917 342.73 115.598 338.966 121.424 339.314C127.052 339.65 129.873 341.28 134.576 343.704C137.658 345.293 139.531 346.912 141.639 348.575C143.747 350.238 145.908 351.772 148.375 354.67C151.164 357.945 153.655 360.563 152.227 364.905C151.201 368.024 149.508 370.197 146.176 371.503C143.089 372.713 138.03 371.073 138.03 371.073L130.984 362.225L119.296 354.312Z" fill="#C6D4BA"/>
</svg>
